<svg xmlns="http://www.w3.org/2000/svg" width="800" height="1000" viewBox="0 0 800 1000" role="img" aria-label="Sac cabas wax">
  <defs>
    <linearGradient id="bg" x1="0" y1="0" x2="1" y2="1"><stop offset="0" stop-color="#e9f0f6"/><stop offset="1" stop-color="#c7d6e4"/></linearGradient>
    <pattern id="wax" width="84" height="84" patternUnits="userSpaceOnUse">
      <rect width="84" height="84" fill="#1f3a5f"/>
      <circle cx="42" cy="42" r="32" fill="#e8a317"/><circle cx="42" cy="42" r="22" fill="#f5e8d8"/>
      <circle cx="42" cy="42" r="12" fill="#b5432a"/><circle cx="42" cy="42" r="4" fill="#f5e8d8"/>
      <path d="M0 0 L20 0 L0 20 Z M84 0 L64 0 L84 20 Z M0 84 L20 84 L0 64 Z M84 84 L64 84 L84 64 Z" fill="#e8a317"/>
    </pattern>
  </defs>
  <rect width="800" height="1000" fill="url(#bg)"/>
  <ellipse cx="400" cy="830" rx="250" ry="24" fill="#2b1c10" opacity=".14"/>
  <path d="M290 340 C290 130 510 130 510 340" stroke="#7a4b21" stroke-width="22" fill="none" stroke-linecap="round"/>
  <path d="M200 330 L600 330 L650 810 L150 810 Z" fill="url(#wax)" stroke="#2b1c10" stroke-width="7" stroke-linejoin="round"/>
  <path d="M200 330 L600 330 L606 390 L194 390 Z" fill="#7a4b21" stroke="#2b1c10" stroke-width="7" stroke-linejoin="round"/>
  <path d="M154 760 L646 760" stroke="#7a4b21" stroke-width="40"/>
  <circle cx="400" cy="360" r="9" fill="#e8a317"/>
</svg>
